<svg width="32" height="32" viewBox="0 0 32 32" fill="none" xmlns="http://www.w3.org/2000/svg">
  <defs>
    <linearGradient id="bg" x1="0%" y1="0%" x2="100%" y2="100%">
      <stop offset="0%" style="stop-color:#667EEA"/>
      <stop offset="100%" style="stop-color:#764BA2"/>
    </linearGradient>
    <linearGradient id="fire" x1="0%" y1="100%" x2="0%" y2="0%">
      <stop offset="0%" style="stop-color:#F093FB"/>
      <stop offset="50%" style="stop-color:#F5576C"/>
      <stop offset="100%" style="stop-color:#4FACFE"/>
    </linearGradient>
  </defs>
  
  <!-- 背景 -->
  <rect width="32" height="32" rx="8" fill="url(#bg)"/>
  
  <!-- 火焰 -->
  <path d="M16 4C12 4 9 7 9 11C9 13 10 14 11 14.5C10 15 9 16 9 18C9 22 12 25 16 25C18 25 19 24 19.5 23C20 24 21 25 23 25C27 25 30 22 30 18C30 16 29 15 28 14.5C29 14 30 13 30 11C30 7 27 4 23 4C21 4 20 5 19.5 6C19 5 18 4 16 4Z" fill="url(#fire)"/>
  
  <!-- 中心点 -->
  <circle cx="16" cy="16" r="3" fill="white" opacity="0.9"/>
  <circle cx="16" cy="16" r="1.5" fill="#667EEA"/>
</svg> 